{"title":"Little Big Man  (Western Adventure 1970)  Excellent quality in a","uid":9406490,"size":639354946,"categoryP":"video","categoryS":"movies","magnet":"?xt=urn:btih:f031a1b01d07d594fe46464dd64f6bc175b57b9b&amp;dn=Little+Big+Man++%28Western+Adventure+1970%29++Excellent+quality+in+a&amp;tr=udp%3A%2F%2Ftracker.openbittorrent.com%3A80&amp;tr=udp%3A%2F%2Fopen.demonii.com%3A1337&amp;tr=udp%3A%2F%2Ftracker.coppersurfer.tk%3A6969&amp;tr=udp%3A%2F%2Fexodus.desync.com%3A6969","seeders":1,"leechers":1,"uploader":"BurtonW","files":2,"time":1388169625,"description":" &lt;a href=&quot;http://www.imdb.com/title/tt0065988/?ref_=nv_sr_1&quot; rel=&quot;nofollow&quot; target=&quot;_NEW&quot;&gt;http://www.imdb.com/title/tt0065988/?ref_=nv_sr_1&lt;/a&gt;\n\n\nAn excellent quality film.\n\n\nEnglish subtitles!\n\n\nStoryline:\n\nJack Crabb is 121 years old as the film begins. A collector of oral histories asks him about his past. He recounts being captured and raised by indians, becoming a gunslinger, marrying an indian, watching her killed by General George Armstrong Custer, and becoming a scout for him at Little Big Horn.\n\n\nTechnical info:\n\n\nGeneral:\n\nComplete name:                  : Little Big Man  (Western Adventure 1970)  Dustin Hoffman, Faye Dunaway &amp; Chief Dan George.mp4\n\nFormat                         : MPEG-4\nFormat profile                 : Base Media / Version 2\nCodec ID                       : mp42\nFile size                      : 605 MiB\nDuration                       : 2h 13mn\nOverall bit rate mode          : Variable\nOverall bit rate               : 633 Kbps\nEncoded date                   : UTC 2013-11-28 18:19:09\nTagged date                    : UTC 2013-11-28 23:31:54\n\n\nVideo:\n\nID                             : 1\nFormat                         : AVC\nFormat/Info                    : Advanced Video Codec\nFormat profile                 : &lt;a class=&quot;__cf_email__&quot; href=&quot;/cdn-cgi/l/email-protection&quot; data-cfemail=&quot;2b664a42456b671f051b&quot;&gt;[email&amp;#160;protected]&lt;/a&gt;&lt;script cf-hash='f9e31' type=&quot;text/javascript&quot;&gt;\n/* &lt;![CDATA[ */!function(){try{var t=&quot;currentScript&quot;in document?document.currentScript:function(){for(var t=document.getElementsByTagName(&quot;script&quot;),e=t.length;e--;)if(t[e].getAttribute(&quot;cf-hash&quot;))return t[e]}();if(t&amp;&amp;t.previousSibling){var e,r,n,i,c=t.previousSibling,a=c.getAttribute(&quot;data-cfemail&quot;);if(a){for(e=&quot;&quot;,r=parseInt(a.substr(0,2),16),n=2;a.length-n;n+=2)i=parseInt(a.substr(n,2),16)^r,e+=String.fromCharCode(i);e=document.createTextNode(e),c.parentNode.replaceChild(e,c)}}}catch(u){}}();/* ]]&gt; */&lt;/script&gt;\nFormat settings, CABAC         : Yes\nFormat settings, ReFrames      : 16 frames\nCodec ID                       : avc1\nCodec ID/Info                  : Advanced Video Coding\nDuration                       : 2h 13mn\nBit rate mode                  : Variable\nBit rate                       : 464 Kbps\nWidth                          : 720 pixels\nHeight                         : 304 pixels\nDisplay aspect ratio           : 2.35:1\nFrame rate mode                : Constant\nFrame rate                     : 25.000 fps\nColor space                    : YUV\nChroma subsampling             : 4:2:0\nBit depth                      : 8 bits\nScan type                      : Progressive\nBits/(Pixel*Frame)             : 0.085\nStream size                    : 444 MiB (73%)\nWriting library                : x264 core 130 r2273 b3065e6\nEncoding settings              : Deleted\nEncoded date                   : UTC 2013-11-28 18:19:09\nTagged date                    : UTC 2013-11-28 23:31:54\nColor primaries                : BT.601 PAL\nTransfer characteristics       : BT.709\nMatrix coefficients            : BT.601\n\nAudio:\n\nID                             : 2\nFormat                         : AAC\nFormat/Info                    : Advanced Audio Codec\nFormat profile                 : LC\nCodec ID                       : 40\nDuration                       : 2h 13mn\nBit rate mode                  : Variable\nBit rate                       : 160 Kbps\nMaximum bit rate               : 206 Kbps\nChannel(s)                     : 2 channels\nChannel positions              : Front: L R\nSampling rate                  : 48.0 KHz\nCompression mode               : Lossy\nDelay relative to video        : 80ms\nStream size                    : 153 MiB (25%)\nLanguage                       : English\nEncoded date                   : UTC 2013-11-28 18:19:09\nTagged date                    : UTC 2013-11-28 23:31:53\n\nText:\n\nID                             : 3\nFormat                         : mp4s\nCodec ID                       : E0\nDuration                       : 2h 13mn\nBit rate mode                  : Variable\nBit rate                       : 4 898 bps\nMaximum bit rate               : 4 245 Mbps\nDelay relative to video        : 80ms\nStream size                    : 4.68 MiB (1%)\nLanguage                       : English\nEncoded date                   : UTC 2013-11-28 18:19:09\nTagged date                    : UTC 2013-11-28 23:31:53\n\n","torrent":{"xt":"urn:btih:f031a1b01d07d594fe46464dd64f6bc175b57b9b","amp;dn":"Little+Big+Man++%28Western+Adventure+1970%29++Excellent+quality+in+a","amp;tr":["udp%3A%2F%2Ftracker.openbittorrent.com%3A80","udp%3A%2F%2Fopen.demonii.com%3A1337","udp%3A%2F%2Ftracker.coppersurfer.tk%3A6969","udp%3A%2F%2Fexodus.desync.com%3A6969"],"infoHash":"f031a1b01d07d594fe46464dd64f6bc175b57b9b","infoHashBuffer":{"type":"Buffer","data":[240,49,161,176,29,7,213,148,254,70,70,77,214,79,107,193,117,181,123,155]},"announce":[],"urlList":[]}}